<svg width="38" height="37" viewBox="0 0 38 37" fill="none" xmlns="http://www.w3.org/2000/svg">
<g id="Frame 1618869283">
<path id="Vector" d="M17.9471 30.7289C17.6537 30.9901 17.3 31.1141 16.8862 31.1009L15.6629 31.0296C15.2496 31.0055 14.9073 30.841 14.636 30.5361C14.3595 30.2254 14.2384 29.8692 14.2727 29.4675L12.6619 26.354L8.46742 30.0868C8.16823 30.353 7.82913 30.4615 7.45012 30.4121C7.07111 30.3628 6.74591 30.1856 6.47453 29.8807L5.49142 28.776C5.22004 28.471 5.08185 28.1274 5.07683 27.7453C5.07181 27.3631 5.2189 27.0389 5.5181 26.7726L9.71257 23.0399L6.8072 21.0785C6.40423 21.066 6.06449 20.9043 5.78799 20.5936C5.51149 20.2829 5.39039 19.9267 5.4247 19.525L5.49596 18.3017C5.52003 17.8885 5.68166 17.5487 5.98085 17.2825C6.2858 17.0111 6.64488 16.8874 7.0581 16.9115L17.6767 17.53C18.0688 17.5419 18.4056 17.7061 18.6872 18.0226C18.9637 18.3333 19.0903 18.6898 19.0668 19.0921L18.4483 29.7107C18.4134 30.1233 18.2463 30.4627 17.9471 30.7289Z" fill="black"/>
<path id="Vector_2" d="M31.3865 18.769C31.68 18.5079 31.8442 18.171 31.8791 17.7584L31.9504 16.5351C31.9744 16.1219 31.8508 15.7628 31.5794 15.4579C31.3029 15.1472 30.9632 14.9855 30.5602 14.973L27.6548 13.0116L31.8493 9.27886C32.1485 9.0126 32.2956 8.68839 32.2906 8.30621C32.2856 7.92403 32.1474 7.58047 31.876 7.27552L30.8929 6.1708C30.6215 5.86585 30.2963 5.6887 29.9173 5.63935C29.5383 5.59 29.1992 5.69845 28.9 5.96471L24.7055 9.69745L23.0947 6.58401C23.129 6.1823 23.0079 5.82609 22.7314 5.51539C22.4549 5.20469 22.1152 5.04306 21.7122 5.0305L20.4889 4.95924C20.0757 4.93517 19.7195 5.05627 19.4203 5.32253C19.1153 5.5939 18.9508 5.9362 18.9267 6.34942L18.3082 16.968C18.2746 17.3588 18.3985 17.7125 18.6802 18.0289C18.9567 18.3396 19.2961 18.5067 19.6984 18.5301L30.317 19.1486C30.7308 19.1618 31.0874 19.0353 31.3865 18.769Z" fill="black"/>
<path id="Line 255" d="M13.2937 11.7788L24.2628 24.1048" stroke="black" stroke-width="0.75" stroke-linecap="round"/>
</g>
</svg>
